<svg width="14" height="13" viewBox="0 0 14 13" fill="none" xmlns="http://www.w3.org/2000/svg">
<path d="M3.17811 13V4.22892H0.177061V13H3.17811ZM1.67797 3.03066C2.72449 3.03066 3.3759 2.35714 3.3759 1.51547C3.3564 0.654822 2.72453 0 1.69783 0C0.671294 0 0 0.654835 0 1.51547C0 2.35718 0.651247 3.03066 1.65838 3.03066H1.67788H1.67797ZM4.83918 13H7.84023V8.1018C7.84023 7.83966 7.85973 7.57778 7.93898 7.39039C8.15593 6.86663 8.64972 6.32417 9.47874 6.32417C10.5647 6.32417 10.9991 7.1285 10.9991 8.3076V12.9999H14V7.97068C14 5.27655 12.5194 4.023 10.5449 4.023C8.92599 4.023 8.21516 4.90209 7.82027 5.50083H7.8403V4.22874H4.83925C4.87863 5.05177 4.83925 12.9998 4.83925 12.9998L4.83918 13Z" fill="white"/>
</svg>
