<svg width="17" height="13" viewBox="0 0 17 13" fill="none" xmlns="http://www.w3.org/2000/svg">
<path d="M16.0954 1.47781C15.5318 1.72754 14.9264 1.89628 14.2899 1.97255C14.9466 1.57959 15.4379 0.961114 15.6722 0.232532C15.0552 0.599021 14.3799 0.856989 13.6757 0.995222C13.2021 0.489595 12.5749 0.154458 11.8913 0.0418416C11.2078 -0.0707748 10.5062 0.0454306 9.89546 0.372416C9.28473 0.699402 8.79904 1.21887 8.51379 1.85018C8.22854 2.48149 8.1597 3.18931 8.31795 3.86375C7.06774 3.80097 5.84469 3.47602 4.72819 2.90998C3.6117 2.34394 2.62669 1.54946 1.83711 0.578105C1.56713 1.04382 1.41189 1.58378 1.41189 2.15883C1.41159 2.67651 1.53908 3.18626 1.78303 3.64286C2.02699 4.09945 2.37988 4.48877 2.81038 4.77627C2.31111 4.76039 1.82285 4.62548 1.38625 4.38278V4.42328C1.3862 5.14934 1.63735 5.85307 2.09709 6.41504C2.55683 6.97702 3.19684 7.36262 3.90852 7.50644C3.44536 7.63178 2.95978 7.65025 2.48843 7.56043C2.68923 8.18517 3.08036 8.73148 3.60707 9.12288C4.13378 9.51428 4.7697 9.73118 5.4258 9.74321C4.31203 10.6175 2.93652 11.0918 1.52056 11.0897C1.26974 11.0898 1.01913 11.0751 0.77002 11.0459C2.2073 11.97 3.8804 12.4604 5.58914 12.4585C11.3734 12.4585 14.5356 7.66775 14.5356 3.51277C14.5356 3.37778 14.5322 3.24145 14.5261 3.10646C15.1412 2.66165 15.6721 2.11084 16.094 1.47983L16.0954 1.47781Z" fill="white"/>
</svg>
